<?xml version="1.0" standalone="no"?><!DOCTYPE svg PUBLIC "-//W3C//DTD SVG 1.1//EN" "http://www.w3.org/Graphics/SVG/1.1/DTD/svg11.dtd"><svg t="1717038441670" class="icon" viewBox="0 0 1024 1024" version="1.1" xmlns="http://www.w3.org/2000/svg" p-id="6081" xmlns:xlink="http://www.w3.org/1999/xlink" width="16" height="16"><path d="M-516.5547635 498.308615m-339.791999 0a339.791999 339.791999 0 1 0 679.583998 0 339.791999 339.791999 0 1 0-679.583998 0Z" fill="#3EB29A" p-id="6082"></path><path d="M-1458.03466707 73.478304h356.770762v33.957525H-1458.03466707zM-1678.97532807 583.202427h305.834474v33.957525H-1678.97532807zM-1526.02196607 73.478304h33.957525v33.957525h-33.957525zM-1594.00926607 73.478304h33.957525v33.957525h-33.957525z" fill="#3EB29A" p-id="6083"></path><path d="M898.729861 368.224799m-92.160834 6.751697a92.407818 92.407818 0 1 0 184.321668-13.503394 92.407818 92.407818 0 1 0-184.321668 13.503394Z" fill="#3EB29A" p-id="6084"></path><path d="M898.501658 477.6451a109.38658 109.38658 0 1 1 109.24208-117.334086 109.45883 109.45883 0 0 1-101.150074 117.045086q-4.046003 0.289-8.092006 0.289z m0-184.743385h-5.563254a75.356805 75.356805 0 1 0 80.703309 69.649051 75.501305 75.501305 0 0 0-74.923305-69.721302z" fill="#3EB29A" p-id="6085"></path><path d="M820.327101 573.37642l-91.035067-199.626896S640.857969 289.794962 601.04819 277.367953H346.222254c9.826007 36.630777 41.760531 65.025048 87.783814 72.250053l124.703591 15.461511 53.392789 71.527553-110.614831 114.082833-6.141254 7.658506c-55.921541 70.154801-19.796514 128.460594 35.330276 190.306639l62.929796 65.025048-170.004375 98.982572 25.937769 44.361533 252.441685-81.136809a46.312284 46.312284 0 0 0 22.686517-69.576801L627.130459 662.316235l77.813307-79.113808s43.350032 70.516052 66.036549 84.966062h121.885839c65.530798 0 98.982572-67.9873 98.982572-67.987299z" fill="#3EB29A" p-id="6086"></path><path d="M454.814083 973.208213l-10.404008-32.368024L696.77951 859.77563a29.333521 29.333521 0 0 0 13.79976-43.855782L605.238693 660.293234 708.050519 555.819657l11.343258 18.496014c15.822762 25.648769 42.627531 64.230297 57.222042 76.874056h116.250335c33.018274 0 56.716292-21.675016 70.299301-38.292528l-154.470613-24.131518L715.275524 383.792281c-25.143018-23.481267-87.422564-78.391307-117.045086-89.373315H372.087773a91.107317 91.107317 0 0 0 64.447047 38.437028l131.422846 16.328512 66.397799 88.939815-120.079588 123.764341-5.563254 7.225005c-45.806534 57.800042-23.120017 103.534326 34.752275 168.414873L621.350455 817.509349l-188.861638 109.82008-17.123263-29.405771L566.440415 809.923093l-47.829535-49.491286c-52.887039-59.245043-103.173076-128.966344-36.125027-212.704156l7.225006-8.886756 100.138573-103.678826L549.100402 381.046779l-117.550836-14.45001C380.685529 358.577013 341.74275 326.208989 329.821492 281.775206l-5.707755-21.675015h279.607705l2.456502 0.79475C648.516475 274.550201 731.604036 352.580258 740.996543 361.250265l2.384251 2.239751 88.650815 194.352643 185.321386 28.900021-10.187257 20.735765c-1.589501 3.179002-39.015029 77.452057-114.227334 77.452057H765.850561l-4.190503-2.673252c-18.279263-11.632259-44.289282-48.624286-59.750794-72.250053l-53.031539 53.970789 89.734566 132.506597A63.291046 63.291046 0 0 1 708.050519 891.926903z" fill="#3EB29A" p-id="6087"></path><path d="M113.577083 918.066972l328.658266-157.96029 14.710111 30.605122-328.658266 157.960291zM83.354886 881.327821l325.529838-230.152544 19.608665 27.72957L102.956325 909.050166z" fill="#3EB29A" p-id="6088"></path><path d="M323.355112 201.931673l123.46089 223.007013-164.087095 90.839992-123.46089-222.999789z" fill="#3EB29A" p-id="6089"></path><path d="M276.139702 538.840895l-139.876102-252.875186 193.774642-107.146828L469.625344 431.549566z m-93.925069-239.436676l107.146829 193.268892 134.385098-74.417555-106.930078-193.196641z" fill="#3EB29A" p-id="6090"></path></svg>